<svg width="165" height="143" viewBox="0 0 165 143" fill="none" xmlns="http://www.w3.org/2000/svg">
<g filter="url(#filter0_b_523_762)">
<path d="M60 53.4803V73.2083C60 74.9533 60.2001 76.6013 60.6505 78.1039C62.5018 85.2292 68.6063 89.6886 77.0125 89.6886H90.6225L105.734 99.4314C106.24 99.7673 106.832 99.9623 107.445 99.9951C108.058 100.028 108.668 99.8972 109.21 99.6174C109.752 99.3375 110.204 98.9192 110.517 98.4078C110.831 97.8964 110.993 97.3116 110.987 96.717V89.6886C116.091 89.6886 120.344 88.0406 123.297 85.1808C126.299 82.2725 128 78.1524 128 73.2083V53.4803C128 44.2707 122.096 37.921 112.989 37.0969C112.338 37.0485 111.688 37 110.987 37H77.0125C66.805 37 60 43.5921 60 53.4803Z" fill="url(#paint0_linear_523_762)"/>
</g>
<g filter="url(#filter1_b_523_762)">
<path d="M109 63.3579V86.5304C109 88.58 108.773 90.5158 108.263 92.2808C106.167 100.65 99.2546 105.888 89.7358 105.888H74.3245L57.2134 117.332C56.6398 117.727 55.9695 117.956 55.2754 117.994C54.5814 118.033 53.8901 117.879 53.2767 117.551C52.6634 117.222 52.1515 116.73 51.7966 116.13C51.4418 115.529 51.2576 114.842 51.2642 114.144V105.888C45.4849 105.888 40.6689 103.952 37.326 100.593C33.9264 97.1772 32 92.3377 32 86.5304V63.3579C32 52.5402 38.6858 45.0818 48.9978 44.1139C49.7344 44.0569 50.4709 44 51.2642 44H89.7358C101.294 44 109 51.7431 109 63.3579Z" fill="#141515" fill-opacity="0.04"/>
<path d="M107.303 92.0032L107.298 92.0204L107.293 92.0378C105.319 99.9217 98.839 104.888 89.7358 104.888H74.3245H74.0209L73.7686 105.057L56.6575 116.501L56.6574 116.501L56.6466 116.508C56.224 116.799 55.7306 116.967 55.22 116.996C54.7095 117.024 54.2008 116.911 53.7491 116.669C53.2974 116.427 52.9197 116.065 52.6576 115.621C52.3955 115.178 52.2593 114.67 52.2642 114.153V114.144V105.888V104.888H51.2642C45.7124 104.888 41.1644 103.033 38.0348 99.8879C34.8465 96.6841 33 92.1107 33 86.5304V63.3579C33 58.1584 34.6038 53.8359 37.38 50.7058C40.1531 47.5792 44.1556 45.5745 49.0832 45.1103C49.821 45.0532 50.518 45 51.2642 45H89.7358C95.2864 45 99.8348 46.8547 102.994 50.0288C106.153 53.2033 108 57.7763 108 63.3579V86.5304C108 88.5088 107.781 90.3479 107.303 92.0032Z" stroke="#2F3336" stroke-width="2"/>
</g>
<circle cx="55" cy="74" r="4" fill="#2F3336"/>
<circle cx="71" cy="74" r="4" fill="#2F3336"/>
<circle cx="87" cy="74" r="4" fill="#2F3336"/>
<defs>
<filter id="filter0_b_523_762" x="35" y="12" width="118" height="113" filterUnits="userSpaceOnUse" color-interpolation-filters="sRGB">
<feFlood flood-opacity="0" result="BackgroundImageFix"/>
<feGaussianBlur in="BackgroundImage" stdDeviation="12.5"/>
<feComposite in2="SourceAlpha" operator="in" result="effect1_backgroundBlur_523_762"/>
<feBlend mode="normal" in="SourceGraphic" in2="effect1_backgroundBlur_523_762" result="shape"/>
</filter>
<filter id="filter1_b_523_762" x="9" y="21" width="123" height="120" filterUnits="userSpaceOnUse" color-interpolation-filters="sRGB">
<feFlood flood-opacity="0" result="BackgroundImageFix"/>
<feGaussianBlur in="BackgroundImage" stdDeviation="11.5"/>
<feComposite in2="SourceAlpha" operator="in" result="effect1_backgroundBlur_523_762"/>
<feBlend mode="normal" in="SourceGraphic" in2="effect1_backgroundBlur_523_762" result="shape"/>
</filter>
<linearGradient id="paint0_linear_523_762" x1="128" y1="68.5" x2="60" y2="68.5" gradientUnits="userSpaceOnUse">
<stop stop-color="#FBED96"/>
<stop offset="1" stop-color="#ABECD6"/>
</linearGradient>
</defs>
</svg>
