<svg width="20" height="20" viewBox="0 0 20 20" fill="none" xmlns="http://www.w3.org/2000/svg">
<path d="M16.6691 6.16532V9.56644C16.6691 10.4134 16.389 11.127 15.8888 11.6205C15.3953 12.1206 14.6818 12.4007 13.8348 12.4007V13.6078C13.8348 14.0613 13.328 14.3347 12.9545 14.0813L12.3077 13.6545C12.3677 13.4477 12.3944 13.221 12.3944 12.9809V10.2667C12.3944 8.90623 11.4874 7.99926 10.1269 7.99926H5.59879C5.50542 7.99926 5.41873 8.00593 5.33203 8.0126V6.16532C5.33203 4.46476 6.46574 3.33105 8.1663 3.33105H13.8348C15.5354 3.33105 16.6691 4.46476 16.6691 6.16532Z" stroke="url(#paint0_linear_530_740)" stroke-width="1.2004" stroke-miterlimit="10" stroke-linecap="round" stroke-linejoin="round"/>
<path d="M12.395 10.2664V12.9807C12.395 13.2207 12.3683 13.4475 12.3083 13.6542C12.0616 14.6345 11.248 15.2481 10.1276 15.2481H8.31367L6.29968 16.5885C6.23216 16.6347 6.15327 16.6616 6.07158 16.6661C5.98988 16.6706 5.90852 16.6526 5.83633 16.6141C5.76414 16.5756 5.70388 16.518 5.66212 16.4477C5.62035 16.3773 5.59868 16.2969 5.59945 16.2151V15.2481C4.91922 15.2481 4.35237 15.0213 3.9589 14.6279C3.55877 14.2277 3.33203 13.6609 3.33203 12.9807V10.2664C3.33203 8.99935 4.11896 8.12573 5.33269 8.01236C5.41939 8.00569 5.50608 7.99902 5.59945 7.99902H10.1276C11.4881 7.99902 12.395 8.90599 12.395 10.2664V10.2664Z" stroke="url(#paint1_linear_530_740)" stroke-width="1.2004" stroke-miterlimit="10" stroke-linecap="round" stroke-linejoin="round"/>
<defs>
<linearGradient id="paint0_linear_530_740" x1="5.33203" y1="5.90223" x2="17.1521" y2="7.6956" gradientUnits="userSpaceOnUse">
<stop stop-color="#84B9D1"/>
<stop offset="1" stop-color="#D2B4FC"/>
</linearGradient>
<linearGradient id="paint1_linear_530_740" x1="3.33203" y1="10.0536" x2="12.7809" y2="11.4878" gradientUnits="userSpaceOnUse">
<stop stop-color="#84B9D1"/>
<stop offset="1" stop-color="#D2B4FC"/>
</linearGradient>
</defs>
</svg>
