<svg width="288" height="188" viewBox="0 0 288 188" fill="none" xmlns="http://www.w3.org/2000/svg">
<g opacity="0.3">
<g clip-path="url(#clip0_658_2578)">
<path opacity="0.45" fill-rule="evenodd" clip-rule="evenodd" d="M234.145 34.783C234.92 37.3509 232.998 39.939 230.316 39.939H60.2094C57.5265 39.939 55.6042 37.3498 56.3805 34.7816L66.0347 2.84264C66.5449 1.15471 68.1002 0 69.8636 0H220.674C222.438 0 223.994 1.1554 224.503 2.84402L234.145 34.783ZM285.273 65.0563C286.538 62.4018 284.603 59.3356 281.662 59.3356H8.87695C5.93647 59.3356 4.00105 62.4018 5.26597 65.0563L20.4855 96.9953C21.149 98.3877 22.554 99.2746 24.0965 99.2746H266.443C267.985 99.2746 269.39 98.3877 270.054 96.9953L285.273 65.0563ZM87.7653 231.332C89.8139 231.332 91.5314 229.784 91.7438 227.747L102.651 123.102C102.897 120.741 101.046 118.687 98.6724 118.687H55.9967C53.9479 118.687 52.2303 120.235 52.0182 122.273L41.1258 226.918C40.8801 229.278 42.7313 231.332 45.1043 231.332H87.7653ZM196.333 227.747C196.545 229.785 198.263 231.332 200.311 231.332H242.91C245.283 231.332 247.134 229.278 246.888 226.918L235.996 122.273C235.784 120.235 234.066 118.687 232.017 118.687H189.389C187.016 118.687 185.165 120.742 185.411 123.102L196.333 227.747ZM284.997 282.169C286.368 284.831 284.435 288 281.441 288H6.56002C3.56522 288 1.63254 284.83 3.00431 282.168L18.0873 252.897C18.7733 251.565 20.1454 250.729 21.643 250.729H266.37C267.868 250.729 269.241 251.566 269.926 252.898L284.997 282.169ZM113.142 226.963C112.925 229.308 114.77 231.332 117.125 231.332H170.936C173.291 231.332 175.136 229.308 174.919 226.963L165.229 122.318C165.038 120.261 163.312 118.687 161.246 118.687H126.815C124.749 118.687 123.023 120.261 122.832 122.318L113.142 226.963Z" fill="#797979"/>
</g>
</g>
<defs>
<clipPath id="clip0_658_2578">
<rect width="288" height="288" rx="3" fill="white"/>
</clipPath>
</defs>
</svg>
